<?xml version="1.0" encoding="us-ascii" standalone="no"?><svg xmlns="http://www.w3.org/2000/svg" xmlns:xlink="http://www.w3.org/1999/xlink" contentStyleType="text/css" height="456px" preserveAspectRatio="none" style="width:600px;height:456px;background:#1B1B1B;" version="1.1" viewBox="0 0 600 456" width="600px" zoomAndPan="magnify"><defs/><g><rect fill="#1B1B1B" height="456" style="stroke:none;stroke-width:1.0;" width="600" x="0" y="0"/><!--cluster ON_GROUP--><g id="cluster_ON_GROUP"><path d="M19.5,7 L325.5,7 A12.5,12.5 0 0 1 338,19.5 L338,28.2969 L7,28.2969 L7,19.5 A12.5,12.5 0 0 1 19.5,7 " fill="#FFCCCC" style="stroke:#FFCCCC;stroke-width:1.0;"/><rect fill="none" height="443" rx="12.5" ry="12.5" style="stroke:#AA0000;stroke-width:0.5;" width="331" x="7" y="7"/><line style="stroke:#AA0000;stroke-width:0.5;" x1="7" x2="338" y1="28.2969" y2="28.2969"/><text fill="#8B0000" font-family="sans-serif" font-size="14" lengthAdjust="spacing" textLength="78" x="133.5" y="23.9951">ON_GROUP</text></g><g id="ON_GROUP.ON1"><rect fill="#313139" height="50.2656" rx="12.5" ry="12.5" style="stroke:#000000;stroke-width:0.5;" width="129" x="165.5" y="66"/><line style="stroke:#000000;stroke-width:0.5;" x1="165.5" x2="294.5" y1="92.2969" y2="92.2969"/><text fill="#FFFFFF" font-family="sans-serif" font-size="14" lengthAdjust="spacing" textLength="30" x="215" y="83.9951">ON1</text><text fill="#FFFFFF" font-family="sans-serif" font-size="12" lengthAdjust="spacing" textLength="109" x="170.5" y="108.4355">enter / lightBlue();</text></g><g id="ON_GROUP.ON2"><rect fill="#313139" height="78.2031" rx="12.5" ry="12.5" style="stroke:#000000;stroke-width:0.5;" width="159" x="115.5" y="193"/><line style="stroke:#000000;stroke-width:0.5;" x1="115.5" x2="274.5" y1="219.2969" y2="219.2969"/><text fill="#FFFFFF" font-family="sans-serif" font-size="14" lengthAdjust="spacing" textLength="29" x="180.5" y="210.9951">ON2</text><text fill="#FFFFFF" font-family="sans-serif" font-size="12" lengthAdjust="spacing" textLength="122" x="120.5" y="235.4355">enter / lightYellow();</text><text fill="#FFFFFF" font-family="sans-serif" font-size="12" lengthAdjust="spacing" textLength="107" x="120.5" y="249.4043">enter / count = 0;</text><text fill="#FFFFFF" font-family="sans-serif" font-size="12" lengthAdjust="spacing" textLength="139" x="120.5" y="263.373">1. INCREASE / count++;</text></g><g id="ON_GROUP.ON_HOT"><rect fill="#313139" height="78.2031" rx="12.5" ry="12.5" style="stroke:#000000;stroke-width:0.5;" width="90" x="123" y="348"/><line style="stroke:#000000;stroke-width:0.5;" x1="123" x2="213" y1="374.2969" y2="374.2969"/><text fill="#FFFFFF" font-family="sans-serif" font-size="14" lengthAdjust="spacing" textLength="58" x="139" y="365.9951">ON_HOT</text><text fill="#FFFFFF" font-family="sans-serif" font-size="12" lengthAdjust="spacing" textLength="51" x="128" y="390.4355">enter / {</text><text fill="#FFFFFF" font-family="sans-serif" font-size="12" lengthAdjust="spacing" textLength="62" x="136" y="404.4043">lightRed();</text><text fill="#FFFFFF" font-family="sans-serif" font-size="12" lengthAdjust="spacing" textLength="7" x="128" y="418.373">}</text></g><g id="OFF"><rect fill="#313139" height="50.2656" rx="12.5" ry="12.5" style="stroke:#000000;stroke-width:0.5;" width="176" x="417" y="207"/><line style="stroke:#000000;stroke-width:0.5;" x1="417" x2="593" y1="233.2969" y2="233.2969"/><text fill="#FFFFFF" font-family="sans-serif" font-size="14" lengthAdjust="spacing" textLength="27" x="491.5" y="224.9951">OFF</text><text fill="#FFFFFF" font-family="sans-serif" font-size="12" lengthAdjust="spacing" textLength="156" x="422" y="249.4355">enter / outputText("OFF");</text></g><ellipse cx="372" cy="232" fill="#E7E7E7" rx="10" ry="10" style="stroke:none;stroke-width:1.0;"/><!--link *start* to OFF--><g id="link_*start*_OFF"><path d="M382.131,232 C391.94,232 401.749,232 411.558,232 " fill="none" id="*start*-to-OFF" style="stroke:#E7E7E7;stroke-width:1.0;"/><polygon fill="#E7E7E7" points="416.688,232,407.688,228,411.688,232,407.688,236,416.688,232" style="stroke:#E7E7E7;stroke-width:1.0;"/></g><!--link OFF to ON1--><g id="link_OFF_ON1"><path d="M438.908,206.841 C398.615,191.761 351.278,173.315 332,163 C308.477,150.414 283.882,133.422 264.738,119.217 " fill="none" id="OFF-to-ON1" style="stroke:#E7E7E7;stroke-width:1.0;"/><polygon fill="#E7E7E7" points="260.49,116.045,265.3057,124.6362,264.4955,119.0377,270.094,118.2274,260.49,116.045" style="stroke:#E7E7E7;stroke-width:1.0;"/><text fill="#FFFFFF" font-family="sans-serif" font-size="13" lengthAdjust="spacing" textLength="63" x="333" y="159.0669">INCREASE</text></g><!--link ON1 to OFF--><g id="link_ON1_OFF"><path d="M294.758,114.949 C295.846,115.304 296.927,115.655 298,116 C343.387,130.607 358.803,123.8 401,146 C429.634,161.064 457.78,184.769 477.555,203.322 " fill="none" id="ON1-to-OFF" style="stroke:#E7E7E7;stroke-width:1.0;"/><polygon fill="#E7E7E7" points="481.396,206.96,477.611,197.8675,477.7653,203.5222,472.1106,203.6765,481.396,206.96" style="stroke:#E7E7E7;stroke-width:1.0;"/><text fill="#FFFFFF" font-family="sans-serif" font-size="13" lengthAdjust="spacing" textLength="23" x="427" y="159.0669">DIM</text></g><!--link ON1 to ON2--><g id="link_ON1_ON2"><path d="M223.903,116.212 C218.93,135.964 211.78,164.359 205.836,187.966 " fill="none" id="ON1-to-ON2" style="stroke:#E7E7E7;stroke-width:1.0;"/><polygon fill="#E7E7E7" points="204.587,192.926,210.6622,185.1741,205.8071,188.0771,202.904,183.222,204.587,192.926" style="stroke:#E7E7E7;stroke-width:1.0;"/><text fill="#FFFFFF" font-family="sans-serif" font-size="13" lengthAdjust="spacing" textLength="63" x="217" y="159.0669">INCREASE</text></g><!--link ON2 to ON1--><g id="link_ON2_ON1"><path d="M179.616,192.883 C175.78,177.904 174.205,160.789 180,146 C183.766,136.39 190.134,127.468 197.086,119.757 " fill="none" id="ON2-to-ON1" style="stroke:#E7E7E7;stroke-width:1.0;"/><polygon fill="#E7E7E7" points="200.538,116.071,191.467,119.9073,197.1208,119.721,197.3071,125.3748,200.538,116.071" style="stroke:#E7E7E7;stroke-width:1.0;"/><text fill="#FFFFFF" font-family="sans-serif" font-size="13" lengthAdjust="spacing" textLength="23" x="181" y="159.0669">DIM</text></g><!--link ON2 to ON_HOT--><g id="link_ON2_ON_HOT"><path d="M115.363,256.879 C94.758,267.065 75.0112,281.301 63,301 C44.9463,330.609 82.7759,354.371 117.957,369.162 " fill="none" id="ON2-to-ON_HOT" style="stroke:#E7E7E7;stroke-width:1.0;"/><polygon fill="#E7E7E7" points="122.674,371.1,115.8687,363.9805,118.049,369.2003,112.8291,371.3805,122.674,371.1" style="stroke:#E7E7E7;stroke-width:1.0;"/><text fill="#FFFFFF" font-family="sans-serif" font-size="13" lengthAdjust="spacing" textLength="173" x="64" y="314.0669">2. INCREASE [ count &gt;= 3 ]</text></g><!--link ON_HOT to ON2--><g id="link_ON_HOT_ON2"><path d="M213.028,355.44 C224.665,345.05 235.686,332.378 242,318 C248.214,303.851 243.956,288.94 235.928,275.625 " fill="none" id="ON_HOT-to-ON2" style="stroke:#E7E7E7;stroke-width:1.0;"/><polygon fill="#E7E7E7" points="233.07,271.174,234.5669,280.9084,235.7715,275.3813,241.2987,276.586,233.07,271.174" style="stroke:#E7E7E7;stroke-width:1.0;"/><text fill="#FFFFFF" font-family="sans-serif" font-size="13" lengthAdjust="spacing" textLength="23" x="246" y="314.0669">DIM</text></g><!--link ON_GROUP to OFF--><g id="link_ON_GROUP_OFF"><path d="M338.2789,93.1119 C338.7153,93.1782 339.1671,93.2478 339.6337,93.3208 C341.5001,93.6131 343.6038,93.9602 345.9145,94.3683 C355.1574,96.0007 367.7117,98.6091 381.6326,102.5856 C409.4745,110.5388 442.783,123.9645 466,146 C481.824,161.018 491.781,183.688 497.67,201.84 " fill="none" id="ON_GROUP-to-OFF" style="stroke:#E7E7E7;stroke-width:1.0;"/><polygon fill="#E7E7E7" points="499.225,206.829,500.3666,197.0465,497.7376,202.0554,492.7288,199.4264,499.225,206.829" style="stroke:#E7E7E7;stroke-width:1.0;"/><text fill="#FFFFFF" font-family="sans-serif" font-size="13" lengthAdjust="spacing" textLength="24" x="479" y="159.0669">OFF</text></g><!--SRC=[RL1TJy8m57tlhxZ15vIWRBufBDcGAGzkPiA30R8iMq6osfAkYnh2VwVTEkZGFlJZd7lFERT5lgMxX2TVK8X4ODWZy1ZFC1ypmlXmo6XSY5-27GUkN7SWbon8qdp3MKcpVuhMwrGk13wZuY-T9JpdE4Cj5_28L4G7XEeCeU-h7DNv09WApE4EM2bsfPZX7z7jIAPp_MXq1F5p5CxVMbwLH60P4cIx-HGUAN5NDbUiVSb-O4BOj-8lwLGEB604WpDbtS8q64SJzttI5FHwMZb-2MT6ztv9eNQ8S2Rbb_IWuYzkLj1trAH8JTjNzofoeulKiuRjDcnhM1lPHfQ53kkCu1vM2EcYiypJzDLGi4w8jgh-NI6e-LW3b_iH]--></g></svg>