<?xml version="1.0" encoding="us-ascii" standalone="no"?><svg xmlns="http://www.w3.org/2000/svg" xmlns:xlink="http://www.w3.org/1999/xlink" contentStyleType="text/css" height="579px" preserveAspectRatio="none" style="width:537px;height:579px;background:#1B1B1B;" version="1.1" viewBox="0 0 537 579" width="537px" zoomAndPan="magnify"><defs/><g><rect fill="#1B1B1B" height="579" style="stroke:none;stroke-width:1.0;" width="537" x="0" y="0"/><ellipse cx="16" cy="46" fill="#E7E7E7" rx="10" ry="10" style="stroke:none;stroke-width:1.0;"/><g id="NOT_PRESSED"><rect fill="#313139" height="78.2031" rx="12.5" ry="12.5" style="stroke:#E7E7E7;stroke-width:0.5;" width="178" x="61" y="7"/><line style="stroke:#E7E7E7;stroke-width:0.5;" x1="61" x2="239" y1="33.2969" y2="33.2969"/><text fill="#FFFFFF" font-family="sans-serif" font-size="14" lengthAdjust="spacing" textLength="103" x="98.5" y="24.9951">NOT_PRESSED</text><text fill="#FFFFFF" font-family="sans-serif" font-size="12" lengthAdjust="spacing" textLength="51" x="66" y="49.4355">enter / {</text><text fill="#FFFFFF" font-family="sans-serif" font-size="12" lengthAdjust="spacing" textLength="150" x="74" y="63.4043">reset_debounce_timer();</text><text fill="#FFFFFF" font-family="sans-serif" font-size="12" lengthAdjust="spacing" textLength="7" x="66" y="77.373">}</text></g><g id="elem_N1"><path d="M274,33.5 L274,58.6328 L466,58.6328 L466,43.5 L456,33.5 L274,33.5 " fill="#714137" style="stroke:#E7E7E7;stroke-width:0.5;"/><path d="M456,33.5 L456,43.5 L466,43.5 L456,33.5 " fill="#714137" style="stroke:#E7E7E7;stroke-width:1.0;"/><text fill="#FFFFFF" font-family="sans-serif" font-size="13" lengthAdjust="spacing" textLength="171" x="280" y="50.5669">This is a PlantUML diagram</text></g><path d="M32.5,227 L265,227 A12.5,12.5 0 0 1 277.5,239.5 L277.5,314.1719 L20,314.1719 L20,239.5 A12.5,12.5 0 0 1 32.5,227 " fill="#313139" style="stroke:#313139;stroke-width:1.0;"/><rect fill="none" height="346.375" rx="12.5" ry="12.5" style="stroke:#E7E7E7;stroke-width:0.5;" width="257.5" x="20" y="227"/><line style="stroke:#E7E7E7;stroke-width:0.5;" x1="20" x2="277.5" y1="314.1719" y2="314.1719"/><line style="stroke:#E7E7E7;stroke-width:0.5;" x1="20" x2="277.5" y1="253.2969" y2="253.2969"/><text fill="#FFFFFF" font-family="sans-serif" font-size="14" lengthAdjust="spacing" textLength="66" x="115.75" y="244.9951">PRESSED</text><text fill="#FFFFFF" font-family="sans-serif" font-size="12" lengthAdjust="spacing" textLength="51" x="25" y="264.4355">enter / {</text><text fill="#FFFFFF" font-family="sans-serif" font-size="12" lengthAdjust="spacing" textLength="150" x="33" y="278.4043">reset_debounce_timer();</text><text fill="#FFFFFF" font-family="sans-serif" font-size="12" lengthAdjust="spacing" textLength="127" x="33" y="292.373">output_event(press);</text><text fill="#FFFFFF" font-family="sans-serif" font-size="12" lengthAdjust="spacing" textLength="7" x="25" y="306.3418">}</text><g id="PRESSED.HELD"><rect fill="#313139" height="78.2031" rx="12.5" ry="12.5" style="stroke:#E7E7E7;stroke-width:0.5;" width="146" x="36.5" y="485.1719"/><line style="stroke:#E7E7E7;stroke-width:0.5;" x1="36.5" x2="182.5" y1="511.4688" y2="511.4688"/><text fill="#FFFFFF" font-family="sans-serif" font-size="14" lengthAdjust="spacing" textLength="38" x="90.5" y="503.167">HELD</text><text fill="#FFFFFF" font-family="sans-serif" font-size="12" lengthAdjust="spacing" textLength="51" x="41.5" y="527.6074">enter / {</text><text fill="#FFFFFF" font-family="sans-serif" font-size="12" lengthAdjust="spacing" textLength="118" x="49.5" y="541.5762">output_event(held);</text><text fill="#FFFFFF" font-family="sans-serif" font-size="12" lengthAdjust="spacing" textLength="7" x="41.5" y="555.5449">}</text></g><ellipse cx="109.5" cy="335.1719" fill="#E7E7E7" rx="10" ry="10" style="stroke:none;stroke-width:1.0;"/><g id="PRESSED.CONFIRMING_HELD"><rect fill="#313139" height="50" rx="12.5" ry="12.5" style="stroke:#E7E7E7;stroke-width:0.5;" width="155" x="32" y="382.1719"/><line style="stroke:#E7E7E7;stroke-width:0.5;" x1="32" x2="187" y1="408.4688" y2="408.4688"/><text fill="#FFFFFF" font-family="sans-serif" font-size="14" lengthAdjust="spacing" textLength="135" x="42" y="400.167">CONFIRMING_HELD</text></g><!--link *start*PRESSED to CONFIRMING_HELD--><g id="link_*start*PRESSED_CONFIRMING_HELD"><path d="M109.5,345.3229 C109.5,353.3579 109.5,365.4979 109.5,376.8259 " fill="none" id="*start*PRESSED-to-CONFIRMING_HELD" style="stroke:#E7E7E7;stroke-width:1.0;"/><polygon fill="#E7E7E7" points="109.5,381.9559,113.5,372.9559,109.5,376.9559,105.5,372.9559,109.5,381.9559" style="stroke:#E7E7E7;stroke-width:1.0;"/></g><!--link CONFIRMING_HELD to HELD--><g id="link_CONFIRMING_HELD_HELD"><path d="M109.5,432.2799 C109.5,446.0079 109.5,463.6224 109.5,479.6838 " fill="none" id="CONFIRMING_HELD-to-HELD" style="stroke:#E7E7E7;stroke-width:1.0;"/><polygon fill="#E7E7E7" points="109.5,485.0632,113.5,476.0632,109.5,480.0632,105.5,476.0632,109.5,485.0632" style="stroke:#E7E7E7;stroke-width:1.0;"/><text fill="#FFFFFF" font-family="sans-serif" font-size="13" lengthAdjust="spacing" textLength="152" x="110.5" y="463.2388">[debounce_ms() &gt; 800]</text></g><!--link *start* to NOT_PRESSED--><g id="link_*start*_NOT_PRESSED"><path d="M26.207,46 C35.9527,46 45.6983,46 55.4439,46 " fill="none" id="*start*-to-NOT_PRESSED" style="stroke:#E7E7E7;stroke-width:1.0;"/><polygon fill="#E7E7E7" points="60.5402,46,51.5402,42,55.5402,46,51.5402,50,60.5402,46" style="stroke:#E7E7E7;stroke-width:1.0;"/></g><!--link PRESSED to NOT_PRESSED--><g id="link_PRESSED_NOT_PRESSED"><path d="M202.827,226.838 C207.489,189.529 206.91,150.598 196,115 C193.322,106.261 189.099,97.634 184.274,89.61 " fill="none" id="PRESSED-to-NOT_PRESSED" style="stroke:#E7E7E7;stroke-width:1.0;"/><polygon fill="#E7E7E7" points="181.537,85.218,182.9026,94.9717,184.1816,89.4614,189.692,90.7404,181.537,85.218" style="stroke:#E7E7E7;stroke-width:1.0;"/><text fill="#FFFFFF" font-family="sans-serif" font-size="13" lengthAdjust="spacing" textLength="323" x="206" y="128.0669">[is_released &amp;&amp; is_debounced] / release_events();</text><path d="M210.5,137.1328 L210.5,192.1328 L524.5,192.1328 L524.5,147.1328 L514.5,137.1328 L210.5,137.1328 " fill="#714137" style="stroke:#E7E7E7;stroke-width:0.5;"/><path d="M514.5,137.1328 L514.5,147.1328 L524.5,147.1328 L514.5,137.1328 " fill="#714137" style="stroke:#E7E7E7;stroke-width:0.5;"/><text fill="#FFFFFF" font-family="sans-serif" font-size="13" lengthAdjust="spacing" textLength="255" x="216.5" y="154.1997">Multiline action code doesn't render well</text><text fill="#FFFFFF" font-family="sans-serif" font-size="13" lengthAdjust="spacing" textLength="293" x="216.5" y="169.3325">in PlantUML so we use the `release_events()`</text><text fill="#FFFFFF" font-family="sans-serif" font-size="13" lengthAdjust="spacing" textLength="70" x="216.5" y="184.4653">expansion.</text></g><!--link NOT_PRESSED to PRESSED--><g id="link_NOT_PRESSED_PRESSED"><path d="M81.309,85.113 C71.5038,93.628 62.7942,103.585 57,115 C40.5038,147.497 49.2714,161.384 57,197 C58.7764,205.186 60.9146,213.439 63.3401,221.688 " fill="none" id="NOT_PRESSED-to-PRESSED" style="stroke:#E7E7E7;stroke-width:1.0;"/><polygon fill="#E7E7E7" points="64.8869,226.822,66.1197,217.0506,63.4441,222.0347,58.46,219.3591,64.8869,226.822" style="stroke:#E7E7E7;stroke-width:1.0;"/><text fill="#FFFFFF" font-family="sans-serif" font-size="13" lengthAdjust="spacing" textLength="77" x="84" y="153.0669">[ is_pressed</text><text fill="#FFFFFF" font-family="sans-serif" font-size="13" lengthAdjust="spacing" textLength="121" x="66" y="168.1997">&amp;&amp; is_debounced ]</text></g><!--SRC=[fL9DJo914BtthwXu430Hs3rjr7KFYhiaCXe_Ja36ThfaEZJLPBfcqHZ-kzKCu82dpIQJp4nLzNkltklXqHYEpo6vUKXlxthtzxrB5LWprYlmhc3d_mIG60lemFk800eCoAd1PrzIXYdR6HRDrkc8bcgf57b1EtZ8RG1vDDmwJVmuk0PZzQJGimFG0P9lQirRv_nNFW1Vyhpa5F_AWUPS1aEbGy3-zAw_8EsCv-ZCTdeOVJ5-GMBEnKrorRyRz9FVQGIHxbvbExdc66wrpKAp1UVmeziTHoyw3PM87IUg3valdQ46mmGPE4TuHkSNm8McODbw0lOmqvpbg-vRpsmCQtzQc5NRQ6Sd56eeJijRQJA2C4KndY7NXOcG1MhJXailLKrldX2c92VooEt1uGjNS7Bcbze4SBnxHUAADgG5EjG13HmUIhJRGCnuOwzzWUQk5MS_uNktswhQU_wpdbSXBhz4isQgqcbqr7y8M_SgO95qMbrGyTjPcWh0e7HivHj1PwiSCcyGZ1WMqogGZ3Y-GET6PEapYk2b26N0LGnF-pHF8yBNUSpMKrkfkkQuGqr_LBowkMYY3tihmFW3]--></g></svg>